<svg width="169" height="179" viewBox="0 0 169 179" fill="none" xmlns="http://www.w3.org/2000/svg">
<circle cx="84" cy="60" r="60" fill="#689C36"/>
<g clip-path="url(#clip0_1054_20553)">
<path d="M109.709 58.2512C112.29 58.209 116 54.9936 116 54.9936V96.7999H103.692M109.709 58.2512C107.031 58.2951 106.371 54.9936 103.692 54.9936M109.709 58.2512C109.709 58.2512 113.72 54.611 111.624 47.3924C110.209 42.5193 107.788 42.0981 106.427 41.963C103.692 41.6915 101.504 43.5918 101.504 43.5918M103.692 54.9936C101.014 54.9936 99.8063 58.1911 97.1282 58.2512C95.8811 58.2792 94.7066 57.4396 93.8462 56.8437C92.757 56.0895 92.1431 54.9936 90.5641 54.9936C89.1177 54.9936 88.2737 56.1946 87.282 56.8939M103.692 54.9936V96.7999M103.692 96.7999H52V54.9936C52 54.9936 53.8169 56.3487 55.8291 57.1441M55.8291 57.1441C56.654 57.4702 57.5117 57.9737 58.2906 57.9798C61.0184 58.0009 61.9901 54.9936 64.7179 54.9936C66.9363 54.9936 67.9932 57.2413 69.7778 57.9119M55.8291 57.1441C55.8291 57.1441 52 44.6778 52 35.1763C52 25.6748 54.188 23.4554 55.8291 23.2316C57.1966 23.0451 60.0187 23.4661 64.3077 30.5613C69.2308 38.7054 68.2654 39.3161 70.0897 44.2077M69.7778 57.9119C70.1876 58.0659 70.6358 58.1606 71.1453 58.1606C72.5428 58.1606 73.4794 57.4481 74.4273 56.7531C75.3297 56.0916 76.2423 54.9936 77.5726 54.9936C80.3005 54.9936 81.2725 58.1475 84 58.1875C85.3799 58.2078 86.3359 57.5611 87.282 56.8939M69.7778 57.9119V45.2206C69.7778 45.2206 69.8779 44.8262 70.0897 44.2077M77.9829 30.5613V35.4477C77.9829 35.4477 74.4273 37.0527 72.5128 39.5198C71.2669 41.1252 70.4844 43.0553 70.0897 44.2077M77.9829 30.5613H76.3419V25.6748H86.735V30.5613H85.094M77.9829 30.5613H85.094M85.094 30.5613V35.4477C85.094 35.4477 88.3982 37.0766 90.8376 39.7913C91.098 40.081 91.3401 40.3707 91.565 40.6572M87.282 56.8939C87.282 56.8939 84.547 52.0074 88.1026 45.2206C89.2696 42.993 90.4367 41.5551 91.565 40.6572M101.504 43.5918C101.504 43.5918 100.384 40.6875 97.6752 39.7913C96.0216 39.2442 93.8743 38.8196 91.565 40.6572M101.504 43.5918C101.504 43.5918 102.325 39.9374 103.966 38.4339C105.607 36.9304 108.615 37.0766 108.615 37.0766" stroke="#F7FFFA" stroke-width="3" stroke-linecap="round" stroke-linejoin="round"/>
<path d="M60.4787 31.3758L57.1967 39.2484M63.2137 41.4202L60.2052 49.2928" stroke="#F7FFFA" stroke-width="3" stroke-linecap="round" stroke-linejoin="round"/>
</g>
<path d="M29.177 169.165C27.659 169.165 26.218 168.857 24.854 168.241C23.512 167.625 22.324 166.778 21.29 165.7C20.278 164.6 19.486 163.324 18.914 161.872C18.342 160.42 18.056 158.847 18.056 157.153C18.056 155.547 18.342 154.04 18.914 152.632C19.486 151.202 20.289 149.948 21.323 148.87C22.357 147.792 23.567 146.945 24.953 146.329C26.339 145.713 27.846 145.405 29.474 145.405C31.674 145.405 33.555 145.878 35.117 146.824C36.701 147.748 37.889 148.98 38.681 150.52L35.282 153.028C34.688 151.862 33.852 150.971 32.774 150.355C31.718 149.739 30.563 149.431 29.309 149.431C28.319 149.431 27.417 149.64 26.603 150.058C25.789 150.476 25.085 151.048 24.491 151.774C23.897 152.5 23.435 153.336 23.105 154.282C22.797 155.228 22.643 156.229 22.643 157.285C22.643 158.407 22.808 159.441 23.138 160.387C23.49 161.333 23.974 162.158 24.59 162.862C25.228 163.566 25.965 164.127 26.801 164.545C27.637 164.941 28.561 165.139 29.573 165.139C30.761 165.139 31.894 164.831 32.972 164.215C34.072 163.599 35.095 162.697 36.041 161.509V165.997C34.083 168.109 31.795 169.165 29.177 169.165ZM35.711 160.288H30.992V156.955H39.473V169H35.711V160.288ZM53.3861 155.536C52.0441 155.536 50.8451 155.8 49.7891 156.328C48.7331 156.834 47.9741 157.571 47.5121 158.539V169H43.0901V151.708H47.1491V155.404C47.7651 154.216 48.5461 153.281 49.4921 152.599C50.4381 151.917 51.4391 151.543 52.4951 151.477C52.7371 151.477 52.9241 151.477 53.0561 151.477C53.1881 151.477 53.2981 151.488 53.3861 151.51V155.536ZM63.7772 169.33C62.3692 169.33 61.1042 169.099 59.9822 168.637C58.8602 168.153 57.9032 167.493 57.1112 166.657C56.3412 165.821 55.7472 164.864 55.3292 163.786C54.9112 162.708 54.7022 161.575 54.7022 160.387C54.7022 159.177 54.9112 158.033 55.3292 156.955C55.7472 155.877 56.3412 154.92 57.1112 154.084C57.9032 153.248 58.8602 152.599 59.9822 152.137C61.1042 151.653 62.3692 151.411 63.7772 151.411C65.1852 151.411 66.4392 151.653 67.5392 152.137C68.6612 152.599 69.6182 153.248 70.4102 154.084C71.2022 154.92 71.7962 155.877 72.1922 156.955C72.6102 158.033 72.8192 159.177 72.8192 160.387C72.8192 161.575 72.6102 162.708 72.1922 163.786C71.7962 164.864 71.2022 165.821 70.4102 166.657C69.6402 167.493 68.6942 168.153 67.5722 168.637C66.4502 169.099 65.1852 169.33 63.7772 169.33ZM59.2562 160.387C59.2562 161.399 59.4542 162.301 59.8502 163.093C60.2462 163.863 60.7852 164.468 61.4672 164.908C62.1492 165.348 62.9192 165.568 63.7772 165.568C64.6132 165.568 65.3722 165.348 66.0542 164.908C66.7362 164.446 67.2752 163.83 67.6712 163.06C68.0892 162.268 68.2982 161.366 68.2982 160.354C68.2982 159.364 68.0892 158.473 67.6712 157.681C67.2752 156.889 66.7362 156.273 66.0542 155.833C65.3722 155.393 64.6132 155.173 63.7772 155.173C62.9192 155.173 62.1492 155.404 61.4672 155.866C60.7852 156.306 60.2462 156.922 59.8502 157.714C59.4542 158.484 59.2562 159.375 59.2562 160.387ZM82.3379 169.33C80.8639 169.33 79.4559 169.088 78.1139 168.604C76.7719 168.12 75.6169 167.405 74.6489 166.459L76.2329 163.588C77.2669 164.424 78.2789 165.04 79.2689 165.436C80.2809 165.832 81.2489 166.03 82.1729 166.03C83.0309 166.03 83.7129 165.876 84.2189 165.568C84.7469 165.26 85.0109 164.798 85.0109 164.182C85.0109 163.764 84.8679 163.445 84.5819 163.225C84.2959 162.983 83.8779 162.774 83.3279 162.598C82.7999 162.422 82.1509 162.224 81.3809 162.004C80.1049 161.586 79.0379 161.179 78.1799 160.783C77.3219 160.387 76.6729 159.892 76.2329 159.298C75.8149 158.682 75.6059 157.901 75.6059 156.955C75.6059 155.811 75.8919 154.832 76.4639 154.018C77.0579 153.182 77.8719 152.533 78.9059 152.071C79.9619 151.609 81.1939 151.378 82.6019 151.378C83.8339 151.378 84.9999 151.576 86.0999 151.972C87.1999 152.346 88.2009 152.962 89.1029 153.82L87.3209 156.625C86.4409 155.943 85.6049 155.448 84.8129 155.14C84.0209 154.81 83.2179 154.645 82.4039 154.645C81.9419 154.645 81.5019 154.7 81.0839 154.81C80.6879 154.92 80.3579 155.107 80.0939 155.371C79.8519 155.613 79.7309 155.965 79.7309 156.427C79.7309 156.845 79.8409 157.175 80.0609 157.417C80.3029 157.637 80.6549 157.835 81.1169 158.011C81.6009 158.187 82.1839 158.385 82.8659 158.605C84.2519 159.001 85.4179 159.408 86.3639 159.826C87.3319 160.244 88.0579 160.761 88.5419 161.377C89.0259 161.971 89.2679 162.796 89.2679 163.852C89.2679 165.568 88.6409 166.91 87.3869 167.878C86.1329 168.846 84.4499 169.33 82.3379 169.33ZM108.512 169H104.09V159.298C104.09 157.956 103.826 156.955 103.298 156.295C102.792 155.635 102.088 155.305 101.186 155.305C100.658 155.305 100.097 155.459 99.5026 155.767C98.9086 156.075 98.3696 156.504 97.8856 157.054C97.4236 157.582 97.0826 158.198 96.8626 158.902V169H92.4406V144.91H96.8626V154.909C97.5006 153.809 98.3696 152.951 99.4696 152.335C100.57 151.719 101.769 151.411 103.067 151.411C104.189 151.411 105.102 151.609 105.806 152.005C106.51 152.379 107.06 152.896 107.456 153.556C107.852 154.194 108.127 154.92 108.281 155.734C108.435 156.526 108.512 157.351 108.512 158.209V169ZM120.508 169.33C119.1 169.33 117.835 169.099 116.713 168.637C115.591 168.153 114.634 167.493 113.842 166.657C113.072 165.821 112.478 164.864 112.06 163.786C111.642 162.708 111.433 161.575 111.433 160.387C111.433 159.177 111.642 158.033 112.06 156.955C112.478 155.877 113.072 154.92 113.842 154.084C114.634 153.248 115.591 152.599 116.713 152.137C117.835 151.653 119.1 151.411 120.508 151.411C121.916 151.411 123.17 151.653 124.27 152.137C125.392 152.599 126.349 153.248 127.141 154.084C127.933 154.92 128.527 155.877 128.923 156.955C129.341 158.033 129.55 159.177 129.55 160.387C129.55 161.575 129.341 162.708 128.923 163.786C128.527 164.864 127.933 165.821 127.141 166.657C126.371 167.493 125.425 168.153 124.303 168.637C123.181 169.099 121.916 169.33 120.508 169.33ZM115.987 160.387C115.987 161.399 116.185 162.301 116.581 163.093C116.977 163.863 117.516 164.468 118.198 164.908C118.88 165.348 119.65 165.568 120.508 165.568C121.344 165.568 122.103 165.348 122.785 164.908C123.467 164.446 124.006 163.83 124.402 163.06C124.82 162.268 125.029 161.366 125.029 160.354C125.029 159.364 124.82 158.473 124.402 157.681C124.006 156.889 123.467 156.273 122.785 155.833C122.103 155.393 121.344 155.173 120.508 155.173C119.65 155.173 118.88 155.404 118.198 155.866C117.516 156.306 116.977 156.922 116.581 157.714C116.185 158.484 115.987 159.375 115.987 160.387ZM143.061 169.33C141.719 169.33 140.531 169.033 139.497 168.439C138.485 167.823 137.693 166.998 137.121 165.964V176.029H132.699V151.708H136.56V154.678C137.22 153.666 138.056 152.874 139.068 152.302C140.08 151.708 141.235 151.411 142.533 151.411C143.699 151.411 144.766 151.642 145.734 152.104C146.724 152.566 147.582 153.215 148.308 154.051C149.034 154.865 149.595 155.811 149.991 156.889C150.409 157.945 150.618 159.089 150.618 160.321C150.618 161.993 150.288 163.511 149.628 164.875C148.99 166.239 148.099 167.328 146.955 168.142C145.833 168.934 144.535 169.33 143.061 169.33ZM141.576 165.568C142.258 165.568 142.874 165.425 143.424 165.139C143.974 164.853 144.447 164.468 144.843 163.984C145.261 163.478 145.569 162.917 145.767 162.301C145.987 161.663 146.097 161.003 146.097 160.321C146.097 159.595 145.976 158.924 145.734 158.308C145.514 157.692 145.184 157.153 144.744 156.691C144.304 156.207 143.787 155.833 143.193 155.569C142.621 155.305 141.994 155.173 141.312 155.173C140.894 155.173 140.465 155.25 140.025 155.404C139.607 155.536 139.2 155.734 138.804 155.998C138.408 156.262 138.056 156.57 137.748 156.922C137.462 157.274 137.253 157.659 137.121 158.077V162.136C137.385 162.774 137.737 163.357 138.177 163.885C138.639 164.413 139.167 164.831 139.761 165.139C140.355 165.425 140.96 165.568 141.576 165.568Z" fill="#191A19"/>
<defs>
<clipPath id="clip0_1054_20553">
<rect width="80" height="80" fill="white" transform="translate(44 20)"/>
</clipPath>
</defs>
</svg>
