<svg width="18" height="18" viewBox="0 0 18 18" fill="none" xmlns="http://www.w3.org/2000/svg">
<path d="M2.25 2.25H3.75L4.05 3.75L5.25 9.75M5.25 9.75H12.75L15.75 3.75M5.25 9.75L3.53033 11.4697C3.05786 11.9421 3.39248 12.75 4.06066 12.75H12.75M12.75 12.75C11.9216 12.75 11.25 13.4216 11.25 14.25C11.25 15.0784 11.9216 15.75 12.75 15.75C13.5784 15.75 14.25 15.0784 14.25 14.25C14.25 13.4216 13.5784 12.75 12.75 12.75ZM9.375 2.25V6.75M7.125 4.5H11.625M6.75 14.25C6.75 15.0784 6.07843 15.75 5.25 15.75C4.42157 15.75 3.75 15.0784 3.75 14.25C3.75 13.4216 4.42157 12.75 5.25 12.75C6.07843 12.75 6.75 13.4216 6.75 14.25Z" stroke="#689C36" stroke-width="2" stroke-linecap="round" stroke-linejoin="round"/>
</svg>
