<svg width="24" height="24" viewBox="0 0 24 24" fill="none" xmlns="http://www.w3.org/2000/svg">
<path d="M22 12.2222C22 11.4 21.932 10.8 21.7846 10.1778H12.2041V13.8889H17.8276C17.7143 14.8111 17.1021 16.2 15.7415 17.1333L15.7224 17.2575L18.7516 19.5573L18.9615 19.5778C20.8889 17.8333 22 15.2667 22 12.2222Z" fill="#4285F4"/>
<path d="M12.2041 22C14.9591 22 17.272 21.1111 18.9614 19.5778L15.7415 17.1333C14.8798 17.7222 13.7233 18.1333 12.2041 18.1333C9.50566 18.1333 7.21543 16.3889 6.39902 13.9778L6.27936 13.9877L3.12957 16.3766L3.08838 16.4888C4.76637 19.7555 8.21309 22 12.2041 22Z" fill="#34A853"/>
<path d="M6.39906 13.9778C6.18364 13.3556 6.05897 12.6889 6.05897 12C6.05897 11.3111 6.18364 10.6444 6.38772 10.0222L6.38202 9.88971L3.19276 7.46243L3.08841 7.51107C2.39683 8.86665 2 10.3889 2 12C2 13.6111 2.39683 15.1333 3.08841 16.4889L6.39906 13.9778Z" fill="#FBBC05"/>
<path d="M12.2041 5.86665C14.1201 5.86665 15.4126 6.67775 16.1496 7.35558L19.0294 4.6C17.2608 2.98889 14.9591 2 12.2041 2C8.21309 2 4.76637 4.24443 3.08838 7.51108L6.38769 10.0222C7.21543 7.61111 9.50566 5.86665 12.2041 5.86665Z" fill="#EB4335"/>
</svg>
