<svg width="18" height="18" viewBox="0 0 18 18" fill="none" xmlns="http://www.w3.org/2000/svg">
<g clip-path="url(#clip0_8090_4247)">
<path d="M8.52448 1.46332C8.67416 1.00269 9.32584 1.00269 9.47552 1.46332L10.9085 5.87314C10.9755 6.07913 11.1674 6.21861 11.384 6.21861L16.0209 6.21879C16.5052 6.21881 16.7066 6.83858 16.3148 7.12329L12.5636 9.84888C12.3884 9.9762 12.315 10.2019 12.382 10.4079L13.8147 14.8178C13.9643 15.2784 13.4371 15.6615 13.0452 15.3768L9.29388 12.6515C9.11864 12.5242 8.88136 12.5242 8.70612 12.6515L4.95476 15.3768C4.5629 15.6615 4.03569 15.2784 4.18534 14.8178L5.61803 10.4079C5.68496 10.2019 5.61163 9.9762 5.43641 9.84888L1.68525 7.12329C1.29342 6.83858 1.49479 6.21881 1.97913 6.21879L6.61595 6.21861C6.83255 6.21861 7.02452 6.07913 7.09146 5.87314L8.52448 1.46332Z" fill="#FFD12E"/>
</g>
<defs>
<clipPath id="clip0_8090_4247">
<rect width="18" height="18" fill="white"/>
</clipPath>
</defs>
</svg>
